<svg width="32" height="32" viewBox="0 0 32 32" fill="none" xmlns="http://www.w3.org/2000/svg">
<path d="M16 0C7.16344 0 0 7.16344 0 16C0 24.8366 7.16344 32 16 32C24.8366 32 32 24.8366 32 16C32 7.16344 24.8366 0 16 0ZM16 2.66667C23.3634 2.66667 29.3333 8.63656 29.3333 16C29.3333 23.3634 23.3634 29.3333 16 29.3333C8.63656 29.3333 2.66667 23.3634 2.66667 16C2.66667 8.63656 8.63656 2.66667 16 2.66667ZM16 5.33333C11.2305 5.33333 7.33333 9.2305 7.33333 14C7.33333 18.7695 11.2305 22.6667 16 22.6667C20.7695 22.6667 24.6667 18.7695 24.6667 14C24.6667 9.2305 20.7695 5.33333 16 5.33333ZM16 8C18.9455 8 21.3333 10.3878 21.3333 13.3333C21.3333 16.2789 18.9455 18.6667 16 18.6667C13.0545 18.6667 10.6667 16.2789 10.6667 13.3333C10.6667 10.3878 13.0545 8 16 8ZM16 10.6667C14.5272 10.6667 13.3333 11.8605 13.3333 13.3333C13.3333 14.8062 14.5272 16 16 16C17.4728 16 18.6667 14.8062 18.6667 13.3333C18.6667 11.8605 17.4728 10.6667 16 10.6667Z" fill="#4CAF50"/>
</svg>